<mxfile host="Electron" agent="Mozilla/5.0 (Windows NT 10.0; Win64; x64) AppleWebKit/537.36 (KHTML, like Gecko) draw.io/24.7.8 Chrome/128.0.6613.36 Electron/32.0.1 Safari/537.36" version="24.7.8">
  <diagram name="Seite-1" id="TbMbF-5jhfx3El6P_f-3">
    <mxGraphModel dx="1674" dy="5512" grid="1" gridSize="10" guides="1" tooltips="1" connect="1" arrows="1" fold="1" page="1" pageScale="1" pageWidth="827" pageHeight="1169" math="0" shadow="0">
      <root>
        <mxCell id="0" />
        <mxCell id="1" parent="0" />
        <mxCell id="FSUdduVebVgtAKi_JV0F-1" value="DetermineStartingPlayer" style="shape=umlFrame;whiteSpace=wrap;html=1;pointerEvents=0;recursiveResize=0;container=1;collapsible=0;width=160;" parent="1" vertex="1">
          <mxGeometry x="40" y="-4640" width="630" height="200" as="geometry" />
        </mxCell>
        <mxCell id="ZLISz2z6pVpg-5paVFkb-7" value="" style="ellipse;whiteSpace=wrap;html=1;aspect=fixed;" parent="FSUdduVebVgtAKi_JV0F-1" vertex="1">
          <mxGeometry x="560" y="120.5" width="40" height="40" as="geometry" />
        </mxCell>
        <mxCell id="ZLISz2z6pVpg-5paVFkb-8" value="" style="ellipse;whiteSpace=wrap;html=1;aspect=fixed;fillColor=#000000;" parent="FSUdduVebVgtAKi_JV0F-1" vertex="1">
          <mxGeometry x="566.41" y="126.90999999999985" width="27.18" height="27.18" as="geometry" />
        </mxCell>
        <mxCell id="2tk1gI_BZnL5zfWkXrgd-1" style="edgeStyle=orthogonalEdgeStyle;rounded=0;orthogonalLoop=1;jettySize=auto;html=1;exitX=0.5;exitY=0;exitDx=0;exitDy=0;entryX=0.5;entryY=0;entryDx=0;entryDy=0;" edge="1" parent="FSUdduVebVgtAKi_JV0F-1" source="ZLISz2z6pVpg-5paVFkb-11" target="ZLISz2z6pVpg-5paVFkb-2">
          <mxGeometry relative="1" as="geometry">
            <Array as="points">
              <mxPoint x="370" y="80" />
              <mxPoint x="170" y="80" />
            </Array>
          </mxGeometry>
        </mxCell>
        <mxCell id="2tk1gI_BZnL5zfWkXrgd-3" style="edgeStyle=orthogonalEdgeStyle;rounded=0;orthogonalLoop=1;jettySize=auto;html=1;exitX=1;exitY=0.5;exitDx=0;exitDy=0;entryX=0;entryY=0.5;entryDx=0;entryDy=0;" edge="1" parent="FSUdduVebVgtAKi_JV0F-1" source="ZLISz2z6pVpg-5paVFkb-11" target="ZLISz2z6pVpg-5paVFkb-7">
          <mxGeometry relative="1" as="geometry" />
        </mxCell>
        <mxCell id="ZLISz2z6pVpg-5paVFkb-11" value="WaitRanking" style="rounded=1;whiteSpace=wrap;html=1;" parent="FSUdduVebVgtAKi_JV0F-1" vertex="1">
          <mxGeometry x="310" y="120.5" width="120" height="40" as="geometry" />
        </mxCell>
        <mxCell id="ZLISz2z6pVpg-5paVFkb-1" value="" style="ellipse;whiteSpace=wrap;html=1;aspect=fixed;fillColor=#000000;" parent="FSUdduVebVgtAKi_JV0F-1" vertex="1">
          <mxGeometry x="30" y="120.5" width="40" height="40" as="geometry" />
        </mxCell>
        <mxCell id="ZLISz2z6pVpg-5paVFkb-2" value="RollRankingDice" style="rounded=1;whiteSpace=wrap;html=1;" parent="FSUdduVebVgtAKi_JV0F-1" vertex="1">
          <mxGeometry x="110" y="120.5" width="120" height="40" as="geometry" />
        </mxCell>
        <mxCell id="ZLISz2z6pVpg-5paVFkb-3" style="edgeStyle=orthogonalEdgeStyle;rounded=0;orthogonalLoop=1;jettySize=auto;html=1;entryX=0;entryY=0.5;entryDx=0;entryDy=0;" parent="FSUdduVebVgtAKi_JV0F-1" source="ZLISz2z6pVpg-5paVFkb-1" target="ZLISz2z6pVpg-5paVFkb-2" edge="1">
          <mxGeometry relative="1" as="geometry" />
        </mxCell>
        <mxCell id="ZLISz2z6pVpg-5paVFkb-12" style="edgeStyle=orthogonalEdgeStyle;rounded=0;orthogonalLoop=1;jettySize=auto;html=1;entryX=0;entryY=0.5;entryDx=0;entryDy=0;" parent="FSUdduVebVgtAKi_JV0F-1" source="ZLISz2z6pVpg-5paVFkb-2" target="ZLISz2z6pVpg-5paVFkb-11" edge="1">
          <mxGeometry relative="1" as="geometry" />
        </mxCell>
        <mxCell id="T9ozma8ICXOF4jA1SuTN-1" value="requestDice()" style="edgeLabel;html=1;align=center;verticalAlign=middle;resizable=0;points=[];" parent="ZLISz2z6pVpg-5paVFkb-12" vertex="1" connectable="0">
          <mxGeometry x="-0.2333" y="-5" relative="1" as="geometry">
            <mxPoint x="9" y="-15" as="offset" />
          </mxGeometry>
        </mxCell>
        <mxCell id="2tk1gI_BZnL5zfWkXrgd-2" value="receivedRollrankigDice(msg)" style="text;html=1;align=center;verticalAlign=middle;resizable=0;points=[];autosize=1;strokeColor=none;fillColor=none;" vertex="1" parent="FSUdduVebVgtAKi_JV0F-1">
          <mxGeometry x="170" y="50" width="180" height="30" as="geometry" />
        </mxCell>
        <mxCell id="2tk1gI_BZnL5zfWkXrgd-4" value="receivedWait(msg)" style="text;html=1;align=center;verticalAlign=middle;resizable=0;points=[];autosize=1;strokeColor=none;fillColor=none;" vertex="1" parent="FSUdduVebVgtAKi_JV0F-1">
          <mxGeometry x="430" y="140" width="120" height="30" as="geometry" />
        </mxCell>
      </root>
    </mxGraphModel>
  </diagram>
</mxfile>
